<?xml version="1.0" encoding="us-ascii" standalone="no"?><svg xmlns="http://www.w3.org/2000/svg" xmlns:xlink="http://www.w3.org/1999/xlink" contentStyleType="text/css" height="134px" preserveAspectRatio="none" style="width:277px;height:134px;background:#FFFFFF;" version="1.1" viewBox="0 0 277 134" width="277px" zoomAndPan="magnify"><defs/><g><!--class Main--><g id="elem_Main"><rect codeLine="8" fill="#F1F1F1" height="113.1875" id="Main" rx="2.5" ry="2.5" style="stroke:#181818;stroke-width:0.5;" width="256" x="7" y="7"/><ellipse cx="114.75" cy="23" fill="#ADD1B2" rx="11" ry="11" style="stroke:#181818;stroke-width:1.0;"/><path d="M117.7188,28.6406 Q117.1406,28.9375 116.5,29.0781 Q115.8594,29.2344 115.1563,29.2344 Q112.6563,29.2344 111.3281,27.5938 Q110.0156,25.9375 110.0156,22.8125 Q110.0156,19.6875 111.3281,18.0313 Q112.6563,16.375 115.1563,16.375 Q115.8594,16.375 116.5,16.5313 Q117.1563,16.6875 117.7188,16.9844 L117.7188,19.7031 Q117.0938,19.125 116.5,18.8594 Q115.9063,18.5781 115.2813,18.5781 Q113.9375,18.5781 113.25,19.6563 Q112.5625,20.7188 112.5625,22.8125 Q112.5625,24.9063 113.25,25.9844 Q113.9375,27.0469 115.2813,27.0469 Q115.9063,27.0469 116.5,26.7813 Q117.0938,26.5 117.7188,25.9219 L117.7188,28.6406 Z " fill="#000000"/><text fill="#000000" font-family="sans-serif" font-size="14" lengthAdjust="spacing" textLength="32" x="135.25" y="27.8467">Main</text><line style="stroke:#181818;stroke-width:0.5;" x1="8" x2="262" y1="39" y2="39"/><line style="stroke:#181818;stroke-width:0.5;" x1="8" x2="262" y1="47" y2="47"/><ellipse cx="18" cy="60.6484" fill="#84BE84" rx="3" ry="3" style="stroke:#038048;stroke-width:1.0;"/><text fill="#000000" font-family="sans-serif" font-size="14" lengthAdjust="spacing" textLength="42" x="27" y="63.9951">Main()</text><ellipse cx="18" cy="76.9453" fill="#84BE84" rx="3" ry="3" style="stroke:#038048;stroke-width:1.0;"/><text fill="#000000" font-family="sans-serif" font-size="14" lengthAdjust="spacing" textLength="54" x="27" y="80.292">~Main()</text><polygon fill="#FFFF44" points="18,88.2422,22,92.2422,18,96.2422,14,92.2422" style="stroke:#B38D22;stroke-width:1.0;"/><text fill="#000000" font-family="sans-serif" font-size="14" lengthAdjust="spacing" textLength="230" x="27" y="96.5889">arg_parse(int ac, char** av) : auto</text><ellipse cx="18" cy="109.5391" fill="#84BE84" rx="3" ry="3" style="stroke:#038048;stroke-width:1.0;"/><text fill="#000000" font-family="sans-serif" font-size="14" lengthAdjust="spacing" textLength="185" x="27" y="112.8857">run(int ac, char** av) : auto</text></g><!--SRC=[VO-z2W8n48HhynGB5haxXVHsbXQUZo1hN9B8iJbsSpQYp-xz85Y8KtqmNp7ZB9mkD_95mJfZV8UgSCJ4y32hpGHLFSBhGskKSEvHbAh41T1lmKUKfW6yrx0374eUVHduJ_yqSvo50qUIL90zWL279MNMcFfbpUBiGn0AS_NRcQIMjD0LyjSNymO0]--></g></svg>